<?xml version="1.0" encoding="utf-8"?>
<!-- Generator: Adobe Illustrator 28.0.0, SVG Export Plug-In . SVG Version: 6.00 Build 0)  -->
<svg version="1.1" xmlns="http://www.w3.org/2000/svg" xmlns:xlink="http://www.w3.org/1999/xlink" x="0px" y="0px"
	 viewBox="0 0 56 56" style="enable-background:new 0 0 56 56;" xml:space="preserve">
<style type="text/css">
	.st0{fill:#FFFFFF;}
</style>
<polygon class="st0" points="46.2963,30.1489 37.7686,32.4339 30.1011,28.007 37.7686,23.5801 46.2962,25.8651 46.8138,23.9333 
	40.2181,22.166 45.9216,18.873 44.9216,17.141 39.2181,20.4339 40.9854,13.8381 39.0535,13.3205 36.7686,21.8481 29.1011,26.275 
	29.1011,17.4212 35.3438,11.1786 33.9295,9.7643 29.1011,14.5928 29.1011,8.007 27.1011,8.007 27.1011,14.5928 22.2726,9.7643 
	20.8585,11.1786 27.1011,17.4212 27.1011,26.275 19.4335,21.8481 17.1486,13.3205 15.2167,13.8381 16.9841,20.4339 11.2806,17.141 
	10.2806,18.873 15.984,22.166 9.3882,23.9333 9.9059,25.8651 18.4335,23.5801 26.1011,28.007 18.4335,32.4339 9.9058,30.1489 
	9.3882,32.0807 15.984,33.8481 10.2805,37.141 11.2805,38.873 16.9839,35.5802 15.2167,42.1759 17.1485,42.6935 19.4335,34.166 
	27.1011,29.7391 27.1011,38.5928 20.8585,44.8354 22.2726,46.2496 27.1011,41.4213 27.1011,48.007 29.1011,48.007 29.1011,41.4212 
	33.9295,46.2496 35.3438,44.8354 29.1011,38.5928 29.1011,29.7391 36.7686,34.166 39.0536,42.6935 40.9854,42.1759 39.2181,35.5802 
	44.9216,38.873 45.9216,37.141 40.2181,33.8481 46.8138,32.0807 "/>
</svg>
