<svg xmlns="http://www.w3.org/2000/svg" data-name="Layer 1" viewBox="0 0 24 30" x="0px" y="0px">
    <circle cx="12" cy="11" r="2.75" />
    <path d="m12,5.25c-3.17,0-5.75,2.58-5.75,5.75,0,1.12.33,2.21.94,3.15.23.34.69.44,1.04.21.35-.23.44-.69.21-1.04-.45-.69-.69-1.49-.69-2.33,0-2.34,1.91-4.25,4.25-4.25s4.25,1.91,4.25,4.25c0,.83-.24,1.64-.69,2.33-.23.35-.13.81.21,1.04.13.08.27.12.41.12.24,0,.48-.12.63-.34.61-.94.94-2.02.94-3.15,0-3.17-2.58-5.75-5.75-5.75Z" />
    <path d="m12,2.25C7.17,2.25,3.25,6.17,3.25,11c0,1.95.63,3.8,1.82,5.35.25.33.72.39,1.05.13.33-.25.39-.72.13-1.05-.99-1.28-1.51-2.81-1.51-4.43,0-4,3.25-7.25,7.25-7.25s7.25,3.25,7.25,7.25c0,1.62-.52,3.15-1.51,4.43-.25.33-.19.8.13,1.05.14.11.3.16.46.16.22,0,.45-.1.59-.29,1.19-1.54,1.82-3.39,1.82-5.35,0-4.83-3.92-8.75-8.75-8.75Z" />
    <path d="m15.52,18.03l-.41-1.11c-.4-1.07-1.44-1.78-2.58-1.78h-1.06c-1.14,0-2.18.71-2.58,1.78l-.41,1.11c-.32.85-.2,1.79.31,2.54.51.74,1.36,1.18,2.26,1.18h1.9c.9,0,1.75-.44,2.26-1.18.51-.74.63-1.69.31-2.53h0Z" />
</svg>